<svg xmlns="http://www.w3.org/2000/svg" xmlns:xlink="http://www.w3.org/1999/xlink" width="500" zoomAndPan="magnify" viewBox="0 0 375 374.999991" height="500" preserveAspectRatio="xMidYMid meet" version="1.0"><defs><clipPath id="fe0f706883"><path d="M 66.429688 91.96875 L 308.679688 91.96875 L 308.679688 283.21875 L 66.429688 283.21875 Z M 66.429688 91.96875 " clip-rule="nonzero"/></clipPath><clipPath id="303165eb0c"><path d="M 223.398438 161.882812 C 227.132812 162.585938 230.800781 163.476562 234.390625 164.542969 C 234.261719 165.90625 234.609375 167.210938 235.296875 168.292969 C 235.261719 168.242188 235.230469 168.1875 235.199219 168.136719 C 235.191406 168.117188 235.179688 168.097656 235.167969 168.082031 C 234.769531 167.386719 234.523438 166.640625 234.417969 165.894531 C 234.414062 165.867188 234.414062 165.839844 234.410156 165.8125 C 234.378906 165.574219 234.367188 165.339844 234.367188 165.105469 C 234.371094 163.050781 235.4375 161.050781 237.339844 159.941406 C 238.273438 159.40625 239.292969 159.152344 240.300781 159.152344 C 242.363281 159.152344 244.367188 160.21875 245.472656 162.132812 C 245.839844 162.773438 246.078125 163.453125 246.191406 164.140625 C 246.242188 164.457031 246.269531 164.773438 246.269531 165.09375 C 246.269531 166.257812 245.925781 167.402344 245.285156 168.382812 C 249.308594 170.035156 253.226562 171.921875 256.992188 174.027344 C 256.628906 174.707031 256.226562 175.363281 255.78125 175.996094 C 255.792969 175.984375 255.800781 175.972656 255.8125 175.960938 C 259.929688 170.0625 260.488281 162.066406 256.617188 155.519531 C 254.328125 151.640625 250.898438 148.875 247 147.402344 C 246.640625 147.285156 246.28125 147.179688 245.914062 147.082031 C 244.171875 146.566406 242.351562 146.296875 240.511719 146.296875 C 237.980469 146.296875 235.417969 146.808594 232.984375 147.871094 C 232.957031 147.886719 232.925781 147.898438 232.894531 147.914062 L 211.722656 135.6875 L 190.042969 148.210938 L 172.054688 137.824219 L 210.433594 115.648438 L 272.714844 151.613281 L 272.714844 174.238281 L 210.410156 210.246094 L 148.117188 174.253906 C 148.113281 174.257812 148.113281 174.257812 148.109375 174.257812 L 104.214844 148.902344 C 104.457031 145.207031 103.574219 141.542969 101.714844 138.328125 C 98.640625 133.007812 93.308594 129.597656 87.328125 128.960938 C 78.945312 128.074219 70.9375 132.890625 67.796875 140.722656 C 65.710938 145.929688 65.945312 152.011719 68.964844 157.242188 C 69.949219 158.945312 71.164062 160.441406 72.546875 161.710938 C 72.546875 161.710938 72.546875 161.714844 72.546875 161.714844 C 77.796875 166.542969 85.339844 168 91.988281 165.492188 L 127.65625 186.105469 L 127.65625 188.5 L 127.667969 188.527344 L 127.667969 235.394531 L 210.433594 283.21875 L 280.21875 242.914062 C 283.3125 244.71875 286.890625 245.605469 290.445312 245.472656 C 293.46875 245.363281 296.484375 244.527344 299.21875 242.945312 C 308.261719 237.738281 311.371094 226.15625 306.136719 217.109375 C 301.410156 208.898438 291.449219 205.582031 282.878906 208.941406 C 276.363281 211.492188 271.71875 217.464844 270.960938 224.550781 L 210.402344 259.53125 L 157.6875 229.09375 C 157.691406 229.097656 157.699219 229.097656 157.703125 229.097656 L 148.125 223.574219 L 148.125 197.921875 L 200.191406 227.996094 L 210.441406 233.914062 L 281.835938 192.667969 L 293.171875 186.121094 L 293.171875 139.789062 C 275.34375 129.5 257.519531 119.191406 239.691406 108.882812 C 239.6875 108.882812 239.6875 108.882812 239.683594 108.886719 C 229.925781 103.246094 220.164062 97.601562 210.402344 91.96875 L 151.542969 125.976562 L 147.488281 123.628906 C 147.644531 120.039062 146.789062 116.484375 144.96875 113.335938 C 139.734375 104.277344 128.175781 101.195312 119.144531 106.414062 C 110.097656 111.640625 106.992188 123.195312 112.222656 132.253906 C 116.925781 140.398438 126.871094 143.828125 135.546875 140.390625 L 175.4375 163.425781 C 175.433594 163.429688 175.425781 163.429688 175.421875 163.429688 L 190.070312 171.878906 L 211.789062 159.351562 C 215.664062 161.585938 219.242188 164.042969 223 166.398438 C 222.996094 166.34375 222.992188 166.285156 222.988281 166.230469 C 223.707031 175.695312 231.613281 183.152344 241.257812 183.152344 C 247.171875 183.152344 252.433594 180.347656 255.78125 175.996094 C 256.226562 175.363281 256.628906 174.707031 256.992188 174.027344 C 253.226562 171.921875 249.308594 170.035156 245.285156 168.382812 C 245.273438 168.394531 245.261719 168.410156 245.253906 168.425781 C 245.042969 168.742188 244.800781 169.035156 244.527344 169.308594 C 244.527344 169.308594 244.523438 169.3125 244.523438 169.3125 C 244.308594 169.527344 244.074219 169.726562 243.820312 169.910156 C 243.820312 169.914062 243.820312 169.914062 243.816406 169.914062 C 243.527344 170.125 243.21875 170.308594 242.898438 170.464844 C 242.402344 170.703125 241.871094 170.875 241.324219 170.972656 C 241.3125 170.972656 241.300781 170.976562 241.292969 170.976562 C 241.128906 171.003906 240.960938 171.023438 240.796875 171.039062 C 240.792969 171.039062 240.792969 171.039062 240.789062 171.039062 C 240.632812 171.050781 240.476562 171.058594 240.320312 171.058594 C 240.222656 171.058594 240.125 171.054688 240.027344 171.050781 C 239.148438 171.007812 238.328125 170.777344 237.597656 170.398438 C 236.652344 169.914062 235.859375 169.179688 235.296875 168.292969 C 234.609375 167.210938 234.261719 165.90625 234.390625 164.542969 C 230.800781 163.476562 227.132812 162.585938 223.402344 161.882812 Z M 90.621094 145.035156 C 90.980469 145.726562 91.191406 146.464844 91.261719 147.207031 C 91.476562 149.429688 90.429688 151.710938 88.3125 152.933594 C 87.082031 153.644531 85.707031 153.871094 84.410156 153.664062 C 83.832031 153.574219 83.269531 153.398438 82.742188 153.140625 C 81.804688 152.6875 80.980469 151.980469 80.363281 151.042969 C 80.304688 150.953125 80.246094 150.859375 80.191406 150.761719 C 78.542969 147.914062 79.523438 144.277344 82.367188 142.625 C 83.304688 142.085938 84.324219 141.832031 85.332031 141.832031 C 86.003906 141.832031 86.667969 141.945312 87.300781 142.164062 C 88.515625 142.585938 89.601562 143.40625 90.34375 144.558594 C 90.445312 144.714844 90.535156 144.875 90.621094 145.035156 Z M 134.53125 123.210938 C 134.464844 124.136719 134.183594 125.039062 133.707031 125.84375 C 133.347656 126.449219 132.878906 126.988281 132.332031 127.433594 C 132.097656 127.625 131.839844 127.800781 131.566406 127.957031 C 130.632812 128.496094 129.613281 128.753906 128.605469 128.753906 C 127.6875 128.753906 126.78125 128.539062 125.960938 128.136719 C 125.003906 127.660156 124.191406 126.9375 123.613281 126.046875 C 123.554688 125.957031 123.496094 125.867188 123.441406 125.773438 C 122.898438 124.832031 122.644531 123.804688 122.644531 122.792969 C 122.648438 121.753906 122.921875 120.730469 123.4375 119.828125 C 123.960938 118.917969 124.714844 118.160156 125.621094 117.636719 C 125.660156 117.613281 125.695312 117.59375 125.734375 117.570312 C 127.363281 116.683594 129.230469 116.628906 130.832031 117.28125 C 131.828125 117.683594 132.6875 118.351562 133.328125 119.191406 C 133.480469 119.390625 133.621094 119.601562 133.746094 119.824219 C 134.230469 120.660156 134.488281 121.566406 134.535156 122.46875 C 134.542969 122.578125 134.546875 122.691406 134.542969 122.800781 C 134.542969 122.9375 134.539062 123.074219 134.53125 123.210938 Z M 286.28125 231.398438 C 283.054688 229.078125 282.976562 224.277344 286.15625 221.839844 C 288.890625 219.769531 292.730469 220.402344 294.652344 223.175781 C 296.523438 225.871094 295.847656 229.5625 293.191406 231.4375 C 291.117188 232.898438 288.339844 232.878906 286.28125 231.398438 Z M 222.933594 164.820312 C 222.933594 164.976562 222.9375 165.132812 222.941406 165.292969 C 222.9375 165.132812 222.933594 164.976562 222.933594 164.820312 Z M 222.941406 165.292969 C 222.945312 165.449219 222.949219 165.605469 222.957031 165.761719 C 222.949219 165.605469 222.945312 165.449219 222.941406 165.292969 Z M 222.957031 165.765625 C 222.964844 165.917969 222.976562 166.074219 222.988281 166.230469 C 222.976562 166.074219 222.964844 165.917969 222.957031 165.765625 Z M 222.957031 165.765625 " clip-rule="evenodd"/></clipPath><linearGradient x1="190.621119" gradientTransform="matrix(0.026713, 0, 0, 0.0267263, 66.43011, 91.968018)" y1="-138.818431" x2="6738.047833" gradientUnits="userSpaceOnUse" y2="8852.850488" id="0b1010c4a9"><stop stop-opacity="1" stop-color="rgb(49.398804%, 85.099792%, 34.098816%)" offset="0"/><stop stop-opacity="1" stop-color="rgb(49.398804%, 85.099792%, 34.098816%)" offset="0.125"/><stop stop-opacity="1" stop-color="rgb(49.398804%, 85.099792%, 34.098816%)" offset="0.1875"/><stop stop-opacity="1" stop-color="rgb(49.398804%, 85.099792%, 34.098816%)" offset="0.21875"/><stop stop-opacity="1" stop-color="rgb(49.143982%, 85.014343%, 34.405518%)" offset="0.222656"/><stop stop-opacity="1" stop-color="rgb(48.890686%, 84.928894%, 34.713745%)" offset="0.226563"/><stop stop-opacity="1" stop-color="rgb(48.548889%, 84.814453%, 35.124207%)" offset="0.230469"/><stop stop-opacity="1" stop-color="rgb(48.208618%, 84.701538%, 35.536194%)" offset="0.234375"/><stop stop-opacity="1" stop-color="rgb(47.866821%, 84.587097%, 35.946655%)" offset="0.238281"/><stop stop-opacity="1" stop-color="rgb(47.52655%, 84.474182%, 36.358643%)" offset="0.242188"/><stop stop-opacity="1" stop-color="rgb(47.184753%, 84.359741%, 36.769104%)" offset="0.246094"/><stop stop-opacity="1" stop-color="rgb(46.844482%, 84.246826%, 37.181091%)" offset="0.25"/><stop stop-opacity="1" stop-color="rgb(46.502686%, 84.132385%, 37.591553%)" offset="0.253906"/><stop stop-opacity="1" stop-color="rgb(46.162415%, 84.017944%, 38.00354%)" offset="0.257812"/><stop stop-opacity="1" stop-color="rgb(45.822144%, 83.903503%, 38.414001%)" offset="0.261719"/><stop stop-opacity="1" stop-color="rgb(45.481873%, 83.790588%, 38.825989%)" offset="0.265625"/><stop stop-opacity="1" stop-color="rgb(45.140076%, 83.676147%, 39.23645%)" offset="0.269531"/><stop stop-opacity="1" stop-color="rgb(44.799805%, 83.563232%, 39.648438%)" offset="0.273438"/><stop stop-opacity="1" stop-color="rgb(44.458008%, 83.448792%, 40.058899%)" offset="0.277344"/><stop stop-opacity="1" stop-color="rgb(44.117737%, 83.335876%, 40.470886%)" offset="0.28125"/><stop stop-opacity="1" stop-color="rgb(43.77594%, 83.221436%, 40.881348%)" offset="0.285156"/><stop stop-opacity="1" stop-color="rgb(43.435669%, 83.106995%, 41.293335%)" offset="0.289062"/><stop stop-opacity="1" stop-color="rgb(43.093872%, 82.992554%, 41.703796%)" offset="0.292969"/><stop stop-opacity="1" stop-color="rgb(42.753601%, 82.879639%, 42.115784%)" offset="0.296875"/><stop stop-opacity="1" stop-color="rgb(42.411804%, 82.765198%, 42.527771%)" offset="0.300781"/><stop stop-opacity="1" stop-color="rgb(42.071533%, 82.652283%, 42.939758%)" offset="0.304688"/><stop stop-opacity="1" stop-color="rgb(41.731262%, 82.537842%, 43.35022%)" offset="0.308594"/><stop stop-opacity="1" stop-color="rgb(41.390991%, 82.424927%, 43.762207%)" offset="0.3125"/><stop stop-opacity="1" stop-color="rgb(41.049194%, 82.310486%, 44.172668%)" offset="0.316406"/><stop stop-opacity="1" stop-color="rgb(40.708923%, 82.196045%, 44.584656%)" offset="0.320313"/><stop stop-opacity="1" stop-color="rgb(40.367126%, 82.081604%, 44.995117%)" offset="0.324219"/><stop stop-opacity="1" stop-color="rgb(40.026855%, 81.968689%, 45.407104%)" offset="0.328125"/><stop stop-opacity="1" stop-color="rgb(39.685059%, 81.854248%, 45.817566%)" offset="0.332031"/><stop stop-opacity="1" stop-color="rgb(39.344788%, 81.741333%, 46.229553%)" offset="0.335938"/><stop stop-opacity="1" stop-color="rgb(39.002991%, 81.626892%, 46.640015%)" offset="0.339844"/><stop stop-opacity="1" stop-color="rgb(38.66272%, 81.513977%, 47.052002%)" offset="0.34375"/><stop stop-opacity="1" stop-color="rgb(38.322449%, 81.399536%, 47.462463%)" offset="0.347656"/><stop stop-opacity="1" stop-color="rgb(37.982178%, 81.285095%, 47.874451%)" offset="0.351562"/><stop stop-opacity="1" stop-color="rgb(37.640381%, 81.170654%, 48.284912%)" offset="0.355469"/><stop stop-opacity="1" stop-color="rgb(37.30011%, 81.057739%, 48.696899%)" offset="0.359375"/><stop stop-opacity="1" stop-color="rgb(36.958313%, 80.943298%, 49.107361%)" offset="0.363281"/><stop stop-opacity="1" stop-color="rgb(36.618042%, 80.830383%, 49.519348%)" offset="0.367188"/><stop stop-opacity="1" stop-color="rgb(36.276245%, 80.715942%, 49.92981%)" offset="0.371094"/><stop stop-opacity="1" stop-color="rgb(35.935974%, 80.603027%, 50.341797%)" offset="0.375"/><stop stop-opacity="1" stop-color="rgb(35.594177%, 80.488586%, 50.752258%)" offset="0.378906"/><stop stop-opacity="1" stop-color="rgb(35.253906%, 80.374146%, 51.164246%)" offset="0.382812"/><stop stop-opacity="1" stop-color="rgb(34.912109%, 80.259705%, 51.576233%)" offset="0.386719"/><stop stop-opacity="1" stop-color="rgb(34.571838%, 80.14679%, 51.98822%)" offset="0.390625"/><stop stop-opacity="1" stop-color="rgb(34.231567%, 80.032349%, 52.398682%)" offset="0.394531"/><stop stop-opacity="1" stop-color="rgb(33.891296%, 79.919434%, 52.810669%)" offset="0.398438"/><stop stop-opacity="1" stop-color="rgb(33.5495%, 79.804993%, 53.22113%)" offset="0.402344"/><stop stop-opacity="1" stop-color="rgb(33.209229%, 79.692078%, 53.633118%)" offset="0.40625"/><stop stop-opacity="1" stop-color="rgb(32.867432%, 79.577637%, 54.043579%)" offset="0.410156"/><stop stop-opacity="1" stop-color="rgb(32.527161%, 79.463196%, 54.455566%)" offset="0.414063"/><stop stop-opacity="1" stop-color="rgb(32.185364%, 79.348755%, 54.866028%)" offset="0.417969"/><stop stop-opacity="1" stop-color="rgb(31.845093%, 79.23584%, 55.278015%)" offset="0.421875"/><stop stop-opacity="1" stop-color="rgb(31.503296%, 79.121399%, 55.688477%)" offset="0.425781"/><stop stop-opacity="1" stop-color="rgb(31.163025%, 79.008484%, 56.100464%)" offset="0.429688"/><stop stop-opacity="1" stop-color="rgb(30.821228%, 78.894043%, 56.510925%)" offset="0.433594"/><stop stop-opacity="1" stop-color="rgb(30.480957%, 78.781128%, 56.922913%)" offset="0.4375"/><stop stop-opacity="1" stop-color="rgb(30.140686%, 78.666687%, 57.333374%)" offset="0.441406"/><stop stop-opacity="1" stop-color="rgb(29.800415%, 78.552246%, 57.745361%)" offset="0.445313"/><stop stop-opacity="1" stop-color="rgb(29.458618%, 78.437805%, 58.155823%)" offset="0.449219"/><stop stop-opacity="1" stop-color="rgb(29.118347%, 78.32489%, 58.56781%)" offset="0.453125"/><stop stop-opacity="1" stop-color="rgb(28.77655%, 78.210449%, 58.978271%)" offset="0.457031"/><stop stop-opacity="1" stop-color="rgb(28.436279%, 78.097534%, 59.390259%)" offset="0.460938"/><stop stop-opacity="1" stop-color="rgb(28.094482%, 77.983093%, 59.80072%)" offset="0.464844"/><stop stop-opacity="1" stop-color="rgb(27.754211%, 77.870178%, 60.212708%)" offset="0.46875"/><stop stop-opacity="1" stop-color="rgb(27.412415%, 77.755737%, 60.623169%)" offset="0.472656"/><stop stop-opacity="1" stop-color="rgb(27.072144%, 77.641296%, 61.035156%)" offset="0.476562"/><stop stop-opacity="1" stop-color="rgb(26.730347%, 77.526855%, 61.447144%)" offset="0.480469"/><stop stop-opacity="1" stop-color="rgb(26.390076%, 77.41394%, 61.859131%)" offset="0.484375"/><stop stop-opacity="1" stop-color="rgb(26.049805%, 77.2995%, 62.269592%)" offset="0.488281"/><stop stop-opacity="1" stop-color="rgb(25.709534%, 77.186584%, 62.68158%)" offset="0.492188"/><stop stop-opacity="1" stop-color="rgb(25.367737%, 77.072144%, 63.092041%)" offset="0.496094"/><stop stop-opacity="1" stop-color="rgb(25.027466%, 76.959229%, 63.504028%)" offset="0.5"/><stop stop-opacity="1" stop-color="rgb(24.685669%, 76.844788%, 63.91449%)" offset="0.503906"/><stop stop-opacity="1" stop-color="rgb(24.345398%, 76.730347%, 64.326477%)" offset="0.507812"/><stop stop-opacity="1" stop-color="rgb(24.003601%, 76.615906%, 64.736938%)" offset="0.511719"/><stop stop-opacity="1" stop-color="rgb(23.66333%, 76.502991%, 65.148926%)" offset="0.515625"/><stop stop-opacity="1" stop-color="rgb(23.321533%, 76.38855%, 65.559387%)" offset="0.519531"/><stop stop-opacity="1" stop-color="rgb(22.981262%, 76.275635%, 65.971375%)" offset="0.523438"/><stop stop-opacity="1" stop-color="rgb(22.639465%, 76.161194%, 66.381836%)" offset="0.527344"/><stop stop-opacity="1" stop-color="rgb(22.299194%, 76.048279%, 66.793823%)" offset="0.53125"/><stop stop-opacity="1" stop-color="rgb(21.958923%, 75.933838%, 67.204285%)" offset="0.535156"/><stop stop-opacity="1" stop-color="rgb(21.618652%, 75.819397%, 67.616272%)" offset="0.539062"/><stop stop-opacity="1" stop-color="rgb(21.276855%, 75.704956%, 68.026733%)" offset="0.542969"/><stop stop-opacity="1" stop-color="rgb(20.936584%, 75.592041%, 68.438721%)" offset="0.546875"/><stop stop-opacity="1" stop-color="rgb(20.594788%, 75.4776%, 68.849182%)" offset="0.550781"/><stop stop-opacity="1" stop-color="rgb(20.254517%, 75.364685%, 69.261169%)" offset="0.554688"/><stop stop-opacity="1" stop-color="rgb(19.91272%, 75.250244%, 69.671631%)" offset="0.558594"/><stop stop-opacity="1" stop-color="rgb(19.572449%, 75.137329%, 70.083618%)" offset="0.5625"/><stop stop-opacity="1" stop-color="rgb(19.230652%, 75.022888%, 70.495605%)" offset="0.566406"/><stop stop-opacity="1" stop-color="rgb(18.890381%, 74.908447%, 70.907593%)" offset="0.570312"/><stop stop-opacity="1" stop-color="rgb(18.55011%, 74.794006%, 71.318054%)" offset="0.574219"/><stop stop-opacity="1" stop-color="rgb(18.209839%, 74.681091%, 71.730042%)" offset="0.578125"/><stop stop-opacity="1" stop-color="rgb(17.868042%, 74.56665%, 72.140503%)" offset="0.582031"/><stop stop-opacity="1" stop-color="rgb(17.527771%, 74.453735%, 72.55249%)" offset="0.585938"/><stop stop-opacity="1" stop-color="rgb(17.185974%, 74.339294%, 72.962952%)" offset="0.589844"/><stop stop-opacity="1" stop-color="rgb(16.845703%, 74.226379%, 73.374939%)" offset="0.59375"/><stop stop-opacity="1" stop-color="rgb(16.503906%, 74.111938%, 73.7854%)" offset="0.597656"/><stop stop-opacity="1" stop-color="rgb(16.163635%, 73.999023%, 74.197388%)" offset="0.601562"/><stop stop-opacity="1" stop-color="rgb(15.821838%, 73.884583%, 74.607849%)" offset="0.605469"/><stop stop-opacity="1" stop-color="rgb(15.481567%, 73.770142%, 75.019836%)" offset="0.609375"/><stop stop-opacity="1" stop-color="rgb(15.139771%, 73.655701%, 75.430298%)" offset="0.613281"/><stop stop-opacity="1" stop-color="rgb(14.7995%, 73.542786%, 75.842285%)" offset="0.617188"/><stop stop-opacity="1" stop-color="rgb(14.459229%, 73.428345%, 76.252747%)" offset="0.621094"/><stop stop-opacity="1" stop-color="rgb(14.118958%, 73.31543%, 76.664734%)" offset="0.625"/><stop stop-opacity="1" stop-color="rgb(13.777161%, 73.200989%, 77.075195%)" offset="0.628906"/><stop stop-opacity="1" stop-color="rgb(13.43689%, 73.088074%, 77.487183%)" offset="0.632812"/><stop stop-opacity="1" stop-color="rgb(13.095093%, 72.973633%, 77.897644%)" offset="0.636719"/><stop stop-opacity="1" stop-color="rgb(12.754822%, 72.859192%, 78.309631%)" offset="0.640625"/><stop stop-opacity="1" stop-color="rgb(12.413025%, 72.744751%, 78.720093%)" offset="0.644531"/><stop stop-opacity="1" stop-color="rgb(12.072754%, 72.631836%, 79.13208%)" offset="0.648438"/><stop stop-opacity="1" stop-color="rgb(11.730957%, 72.517395%, 79.542542%)" offset="0.652344"/><stop stop-opacity="1" stop-color="rgb(11.390686%, 72.40448%, 79.954529%)" offset="0.65625"/><stop stop-opacity="1" stop-color="rgb(11.048889%, 72.290039%, 80.366516%)" offset="0.660156"/><stop stop-opacity="1" stop-color="rgb(10.708618%, 72.177124%, 80.778503%)" offset="0.664062"/><stop stop-opacity="1" stop-color="rgb(10.368347%, 72.062683%, 81.188965%)" offset="0.667969"/><stop stop-opacity="1" stop-color="rgb(10.028076%, 71.948242%, 81.600952%)" offset="0.671875"/><stop stop-opacity="1" stop-color="rgb(9.686279%, 71.833801%, 82.011414%)" offset="0.675781"/><stop stop-opacity="1" stop-color="rgb(9.346008%, 71.720886%, 82.423401%)" offset="0.679688"/><stop stop-opacity="1" stop-color="rgb(9.004211%, 71.606445%, 82.833862%)" offset="0.683594"/><stop stop-opacity="1" stop-color="rgb(8.66394%, 71.49353%, 83.24585%)" offset="0.6875"/><stop stop-opacity="1" stop-color="rgb(8.322144%, 71.379089%, 83.656311%)" offset="0.691406"/><stop stop-opacity="1" stop-color="rgb(7.981873%, 71.266174%, 84.068298%)" offset="0.695312"/><stop stop-opacity="1" stop-color="rgb(7.640076%, 71.151733%, 84.47876%)" offset="0.699219"/><stop stop-opacity="1" stop-color="rgb(7.299805%, 71.037292%, 84.890747%)" offset="0.703125"/><stop stop-opacity="1" stop-color="rgb(6.958008%, 70.922852%, 85.301208%)" offset="0.707031"/><stop stop-opacity="1" stop-color="rgb(6.617737%, 70.809937%, 85.713196%)" offset="0.710938"/><stop stop-opacity="1" stop-color="rgb(6.277466%, 70.695496%, 86.123657%)" offset="0.714844"/><stop stop-opacity="1" stop-color="rgb(5.937195%, 70.582581%, 86.535645%)" offset="0.71875"/><stop stop-opacity="1" stop-color="rgb(5.595398%, 70.46814%, 86.946106%)" offset="0.722656"/><stop stop-opacity="1" stop-color="rgb(5.255127%, 70.355225%, 87.358093%)" offset="0.726562"/><stop stop-opacity="1" stop-color="rgb(4.91333%, 70.240784%, 87.768555%)" offset="0.730469"/><stop stop-opacity="1" stop-color="rgb(4.573059%, 70.126343%, 88.180542%)" offset="0.734375"/><stop stop-opacity="1" stop-color="rgb(4.231262%, 70.011902%, 88.591003%)" offset="0.738281"/><stop stop-opacity="1" stop-color="rgb(3.890991%, 69.898987%, 89.002991%)" offset="0.742188"/><stop stop-opacity="1" stop-color="rgb(3.549194%, 69.784546%, 89.414978%)" offset="0.746094"/><stop stop-opacity="1" stop-color="rgb(3.208923%, 69.671631%, 89.826965%)" offset="0.75"/><stop stop-opacity="1" stop-color="rgb(2.867126%, 69.55719%, 90.237427%)" offset="0.753906"/><stop stop-opacity="1" stop-color="rgb(2.526855%, 69.444275%, 90.649414%)" offset="0.757812"/><stop stop-opacity="1" stop-color="rgb(2.186584%, 69.329834%, 91.059875%)" offset="0.761719"/><stop stop-opacity="1" stop-color="rgb(1.846313%, 69.215393%, 91.471863%)" offset="0.765625"/><stop stop-opacity="1" stop-color="rgb(1.504517%, 69.100952%, 91.882324%)" offset="0.769531"/><stop stop-opacity="1" stop-color="rgb(1.164246%, 68.988037%, 92.294312%)" offset="0.773438"/><stop stop-opacity="1" stop-color="rgb(0.822449%, 68.873596%, 92.704773%)" offset="0.777344"/><stop stop-opacity="1" stop-color="rgb(0.482178%, 68.760681%, 93.11676%)" offset="0.78125"/><stop stop-opacity="1" stop-color="rgb(0.241089%, 68.67981%, 93.408203%)" offset="0.785156"/><stop stop-opacity="1" stop-color="rgb(0%, 68.598938%, 93.699646%)" offset="0.789062"/><stop stop-opacity="1" stop-color="rgb(0%, 68.598938%, 93.699646%)" offset="0.796875"/><stop stop-opacity="1" stop-color="rgb(0%, 68.598938%, 93.699646%)" offset="0.8125"/><stop stop-opacity="1" stop-color="rgb(0%, 68.598938%, 93.699646%)" offset="0.875"/><stop stop-opacity="1" stop-color="rgb(0%, 68.598938%, 93.699646%)" offset="1"/></linearGradient></defs><g clip-path="url(#fe0f706883)"><g clip-path="url(#303165eb0c)"><path fill="url(#0b1010c4a9)" d="M 66.429688 91.96875 L 66.429688 283.21875 L 308.679688 283.21875 L 308.679688 91.96875 Z M 66.429688 91.96875 " fill-rule="nonzero"/></g></g></svg>